<?xml version="1.0" encoding="UTF-8" standalone="no"?>
<svg
   xmlns:dc="http://purl.org/dc/elements/1.1/"
   xmlns:cc="http://creativecommons.org/ns#"
   xmlns:rdf="http://www.w3.org/1999/02/22-rdf-syntax-ns#"
   xmlns:svg="http://www.w3.org/2000/svg"
   xmlns="http://www.w3.org/2000/svg"
   viewBox="0 0 200 300"
   height="300"
   width="200"
   id="svg815"
   version="1.1">
  <metadata
     id="metadata821">
    <rdf:RDF>
      <cc:Work
         rdf:about="">
        <dc:format>image/svg+xml</dc:format>
        <dc:type
           rdf:resource="http://purl.org/dc/dcmitype/StillImage" />
        <dc:title></dc:title>
      </cc:Work>
    </rdf:RDF>
  </metadata>
  <defs
     id="defs819" />
  <g
     transform="matrix(1.005251,0,0,1.0446455,-6.7131954,-10.530245)"
     style="fill:#e22e2e;fill-opacity:1;stroke:#e22e2e;stroke-opacity:1"
     id="g4543">
    <path
       style="fill:#e22e2e;fill-opacity:1;stroke:#e22e2e;stroke-width:0.37795275;stroke-linecap:butt;stroke-linejoin:miter;stroke-miterlimit:4;stroke-dasharray:none;stroke-opacity:1"
       d="M 6.8671049,96.139473 103.63086,40.266209 132.34459,55.652549 126.41716,65.2375 104.87942,53.376137 18.572397,103.31872 v 101.13373 l 46.040818,26.84413 69.919615,-116.58471 h 12.01743 v 46.97724 l 20.44525,-46.97724 h 13.89028 v 78.65957 h -11.7053 V 140.15137 L 144.2092,193.37144 H 132.34784 V 138.27853 L 69.295332,247.52792 38.081218,297.15836 59.618957,242.22152 6.8671049,211.94383 Z"
       id="path820" />
    <path
       style="fill:#e22e2e;fill-opacity:1;stroke:#e22e2e;stroke-width:0.37795275;stroke-linecap:butt;stroke-linejoin:miter;stroke-miterlimit:4;stroke-dasharray:none;stroke-opacity:1"
       d="m 203.83794,211.52962 -96.76376,55.87326 -28.560911,-15.45099 5.774613,-9.5203 21.537738,11.86136 86.30703,-49.94258 V 103.21664 L 146.09183,76.372504 76.172212,192.95722 h -12.01743 v -46.97724 l -20.44525,46.97724 h -13.89028 v -78.65957 h 11.7053 v 53.22007 l 24.97129,-53.22007 h 11.86136 v 55.09291 l 63.052508,-109.249396 31.21412,-49.63044 -21.53774,54.93684 52.75185,30.27769 z"
       id="path820-8" />
  </g>
</svg>
