<svg xmlns="http://www.w3.org/2000/svg" height="300" width="200"><g fill="#e22e2e" stroke="#e22e2e" stroke-width=".378"><path d="M6.867 96.14l96.764-55.874 28.714 15.387-5.928 9.584-21.538-11.86-86.307 49.942v101.133l46.041 26.845 69.92-116.585h12.017v46.977l20.446-46.977h13.89v78.66H169.18v-53.22l-24.97 53.22h-11.862v-55.093L69.295 247.528l-31.214 49.63 21.538-54.936-52.752-30.278z" transform="matrix(1.00525 0 0 1.04465 -6.713 -10.53)"/><path d="M203.838 211.53l-96.764 55.873-28.56-15.451 5.774-9.52 21.538 11.861 86.307-49.943V103.217l-46.041-26.844-69.92 116.584H64.155V145.98L43.71 192.957H29.82v-78.66h11.705v53.22l24.97-53.22h11.862v55.094L141.41 60.14l31.214-49.63-21.538 54.937 52.752 30.277z" transform="matrix(1.00525 0 0 1.04465 -6.713 -10.53)"/></g></svg>